# xmcd
#
# Track frame offsets:
#	150
#	22187
#	39587
#	62267
#	79137
#	92587
#	113210
#	128372
#	148045
#	170712
#	188112
#
# Disc length: 2789 seconds
#
# Revision: 0
# Processed by: cddbd v1.4PL0 Copyright (c) Steve Scherf et al.
#
# Submitted via: MusicManager v6.0.0.0
#
DISCID=8d0ae30b
DTITLE=Rich Chorne - That's Shor-nay
DYEAR=1995
DGENRE=blues
TTITLE0=Let Me Show You What Love Can Do
TTITLE1=Neighbor,Neighbor
TTITLE2=Don't Leave Me Hangin'
TTITLE3=Piece of Your Smile
TTITLE4=Pass The Source
TTITLE5=Not For You To Say (vocal)
TTITLE6=Katy's Song
TTITLE7=Crossing The Line
TTITLE8=Not For You To Say (Instrumental)
TTITLE9=Walkin' With My Baby
TTITLE10=Room With a View
EXTD=
EXTT0=
EXTT1=
EXTT2=
EXTT3=
EXTT4=
EXTT5=
EXTT6=
EXTT7=
EXTT8=
EXTT9=
EXTT10=
PLAYORDER=
